<svg width="48" height="48" viewBox="0 0 48 48" fill="none" xmlns="http://www.w3.org/2000/svg">
<g clip-path="url(#clip0_1831_5795)">
<path d="M26.6088 46.5312L27.9096 44.3328C28.9176 42.6288 29.4216 41.7744 30.2328 41.304C31.044 40.8312 32.064 40.8144 34.104 40.7784C37.1184 40.728 39.0072 40.5432 40.5912 39.8856C42.0471 39.2825 43.37 38.3986 44.4843 37.2843C45.5986 36.17 46.4825 34.8471 47.0856 33.3912C48 31.188 48 28.392 48 22.8V20.4L47.9976 17.8848C47.9952 16.86 46.74 16.2792 45.8328 16.7568C43.7923 17.8335 41.4607 18.2285 39.1794 17.8839C36.8981 17.5393 34.7872 16.4732 33.1558 14.8418C31.5244 13.2104 30.4583 11.0995 30.1137 8.8182C29.7691 6.53695 30.1641 4.20528 31.2408 2.1648C31.7208 1.26 31.1424 0.00480022 30.1152 0.00480022C29.3232 2.23983e-07 28.488 0 27.6 0H20.4C12.5448 0 8.616 0 5.7312 1.7688C4.11647 2.7577 2.75868 4.11467 1.7688 5.7288C0 8.616 0 12.5472 0 20.4V22.8C0 28.392 2.98023e-07 31.188 0.912 33.3912C1.51533 34.8473 2.39962 36.1704 3.51436 37.2847C4.62909 38.399 5.95244 39.2828 7.4088 39.8856C8.9928 40.5432 10.8816 40.7256 13.896 40.7784C15.936 40.8144 16.956 40.8312 17.7672 41.304C18.576 41.7744 19.0824 42.6264 20.0904 44.3328L21.3912 46.5312C22.5504 48.4896 25.4472 48.4896 26.6088 46.5312Z" fill="url(#paint0_linear_1831_5795)"/>
<path d="M40.8016 14.4C44.778 14.4 48.0016 11.1764 48.0016 7.2C48.0016 3.22355 44.778 0 40.8016 0C36.8251 0 33.6016 3.22355 33.6016 7.2C33.6016 11.1764 36.8251 14.4 40.8016 14.4Z" fill="url(#paint1_linear_1831_5795)"/>
</g>
<defs>
<linearGradient id="paint0_linear_1831_5795" x1="7.9845e-07" y1="-1.40627" x2="50.0963" y2="0.819595" gradientUnits="userSpaceOnUse">
<stop stop-color="#32D0FB"/>
<stop offset="1" stop-color="#494FED"/>
</linearGradient>
<linearGradient id="paint1_linear_1831_5795" x1="33.6016" y1="-0.421881" x2="48.6304" y2="0.245878" gradientUnits="userSpaceOnUse">
<stop stop-color="#32D0FB"/>
<stop offset="1" stop-color="#494FED"/>
</linearGradient>
<clipPath id="clip0_1831_5795">
<rect width="48" height="48" fill="white"/>
</clipPath>
</defs>
</svg>
