<svg width="40" height="48" viewBox="0 0 40 48" fill="none" xmlns="http://www.w3.org/2000/svg">
<g clip-path="url(#clip0_1831_5800)">
<mask id="mask0_1831_5800" style="mask-type:luminance" maskUnits="userSpaceOnUse" x="0" y="0" width="40" height="48">
<path d="M40 0H0V48H40V0Z" fill="white"/>
</mask>
<g mask="url(#mask0_1831_5800)">
<path d="M37.9986 3.96C37.5186 3.48 36.7986 3.24 36.0786 3.48C30.7986 4.68 25.5186 3.48 21.1986 0.36C20.4786 -0.12 19.2786 -0.12 18.5586 0.36C13.9986 3.48 8.71859 4.68 3.43859 3.48C2.23859 3.24 0.798594 4.2 0.558594 5.4C0.558594 5.64 0.558594 5.64 0.558594 5.88V23.88C0.558594 30.84 3.91859 37.32 9.67859 41.4L18.5586 47.64C19.2786 48.12 20.4786 48.12 21.4386 47.64L30.3186 41.4C36.0786 37.32 39.4386 30.84 39.4386 23.88V5.88C38.9586 5.16 38.7186 4.44 37.9986 3.96ZM26.9586 21.72L18.7986 29.88C17.8386 30.84 16.3986 30.84 15.4386 29.88L11.5986 26.04C10.6386 25.08 10.6386 23.64 11.5986 22.68C12.5586 21.72 13.9986 21.72 14.9586 22.68L17.1186 24.84L23.5986 18.36C24.5586 17.4 25.9986 17.4 26.9586 18.36C27.9186 19.32 27.9186 20.76 26.9586 21.72Z" fill="url(#paint0_linear_1831_5800)"/>
</g>
</g>
<defs>
<linearGradient id="paint0_linear_1831_5800" x1="0.558594" y1="-1.40627" x2="41.1641" y2="0.0551112" gradientUnits="userSpaceOnUse">
<stop stop-color="#32D0FB"/>
<stop offset="1" stop-color="#494FED"/>
</linearGradient>
<clipPath id="clip0_1831_5800">
<rect width="40" height="48" fill="white"/>
</clipPath>
</defs>
</svg>
