<svg width="48" height="48" viewBox="0 0 48 48" fill="none" xmlns="http://www.w3.org/2000/svg">
<path d="M30.857 13.7143V1.07143C31.2499 1.32143 31.5713 1.57143 31.8213 1.82143L42.7499 12.75C42.9999 13 43.2499 13.3214 43.4999 13.7143H30.857ZM27.4285 14.5714C27.4285 15.2857 27.6785 15.8929 28.1785 16.3929C28.6785 16.8929 29.2856 17.1429 29.9999 17.1429H44.5713V45.4286C44.5713 46.1429 44.3213 46.75 43.8213 47.25C43.3213 47.75 42.7142 48 41.9999 48H5.9999C5.28561 48 4.67847 47.75 4.17847 47.25C3.67847 46.75 3.42847 46.1429 3.42847 45.4286V2.57143C3.42847 1.85714 3.67847 1.25 4.17847 0.75C4.67847 0.25 5.28561 0 5.9999 0H27.4285V14.5714Z" fill="black"/>
</svg>
